<?xml version="1.0" encoding="UTF-8"?>
<svg id="Layer_2" data-name="Layer 2" xmlns="http://www.w3.org/2000/svg" viewBox="0 0 178.24 216.16">
  <g id="Layer_1-2" data-name="Layer 1">
    <g>
      <path d="m174.45,0h-22.75v18.96h-75.85v37.92h-11.38V18.96H0v64.47h37.92v11.38H0v26.55h64.47v-37.92h113.77V0h-3.79Zm-34.13,56.89v-11.38h11.38v11.38h-11.38Zm-26.55-11.38v11.38h-11.38v-11.38h11.38Zm-75.85,0v11.38h-11.38v-11.38h11.38Z"/>
      <polygon points="155.49 94.81 136.52 94.81 117.56 94.81 98.6 94.81 79.64 94.81 75.85 94.81 75.85 98.6 75.85 117.56 75.85 121.35 79.64 121.35 98.6 121.35 117.56 121.35 136.52 121.35 155.49 121.35 174.45 121.35 178.24 121.35 178.24 117.56 178.24 98.6 178.24 94.81 174.45 94.81 155.49 94.81"/>
      <polygon points="155.49 132.73 136.52 132.73 117.56 132.73 98.6 132.73 79.64 132.73 60.68 132.73 41.72 132.73 37.92 132.73 37.92 136.52 37.92 155.49 37.92 159.28 41.72 159.28 60.68 159.28 79.64 159.28 98.6 159.28 117.56 159.28 136.52 159.28 151.69 159.28 151.69 170.66 136.52 170.66 117.56 170.66 98.6 170.66 79.64 170.66 60.68 170.66 41.72 170.66 26.55 170.66 26.55 155.49 26.55 136.52 26.55 132.73 22.75 132.73 3.79 132.73 0 132.73 0 136.52 0 155.49 0 174.45 0 193.41 0 212.37 0 216.16 3.79 216.16 22.75 216.16 26.55 216.16 26.55 212.37 26.55 197.2 41.72 197.2 60.68 197.2 79.64 197.2 98.6 197.2 117.56 197.2 136.52 197.2 155.49 197.2 174.45 197.2 178.24 197.2 178.24 193.41 178.24 174.45 178.24 155.49 178.24 136.52 178.24 132.73 174.45 132.73 155.49 132.73"/>
    </g>
  </g>
</svg>